<svg height="512" viewBox="0 0 64 64" width="512" xmlns="http://www.w3.org/2000/svg"><g id="flat"><path d="m4 33h22v16h-22z" fill="#2d75bb"/><path d="m9 49h12v6h-12z" fill="#aabece"/><path d="m12 52h2v3h-2z" fill="#f4f4e6"/><path d="m16 52h2v3h-2z" fill="#f4f4e6"/><path d="m4 49h2v3h-2z" fill="#f9bb4b"/><path d="m24 49h2v3h-2z" fill="#f9bb4b"/><path d="m8 37h6v4h-6z" fill="#f4f4e6"/><g fill="#205e91"><path d="m4 36h22v2h-22z"/><path d="m4 40h22v2h-22z"/><path d="m4 44h22v2h-22z"/></g><path d="m4 29h4v4h-4z" fill="#50b4f8"/><path d="m22 29h4v4h-4z" fill="#50b4f8"/><path d="m18 33h-6v-4l1-2h4l1 2z" fill="#50b4f8"/><path d="m38 9h22v16h-22z" fill="#2d75bb" transform="matrix(-1 0 0 -1 98 34)"/><path d="m43 3h12v6h-12z" fill="#cfdfe8" transform="matrix(-1 0 0 -1 98 12)"/><path d="m50 3h2v3h-2z" fill="#f4f4e6"/><path d="m46 3h2v3h-2z" fill="#f4f4e6"/><path d="m56 25h4v6h-4z" fill="#50b4f8" transform="matrix(-1 0 0 -1 116 56)"/><path d="m38 25h4v6h-4z" fill="#50b4f8" transform="matrix(-1 0 0 -1 80 56)"/><path d="m43 9h12v8h-12z" fill="#aabece"/><path d="m52 25h-6l-3-8h12z" fill="#cfdfe8"/><path d="m46 25h6v4l-1 2h-4l-1-2z" fill="#50b4f8"/><path d="m47 31v19.5a6.5 6.5 0 0 1 -6.5 6.5 6.5 6.5 0 0 1 -6.5-6.5v-37a10.5 10.5 0 0 0 -10.5-10.5 10.5 10.5 0 0 0 -10.5 10.5v13.5h4v-13.5a6.5 6.5 0 0 1 6.5-6.5 6.5 6.5 0 0 1 6.5 6.5v37a10.5 10.5 0 0 0 10.5 10.5 10.5 10.5 0 0 0 10.5-10.5v-19.5z" fill="#394d5c"/><path d="m38 6h2v3h-2z" fill="#f9bb4b"/><path d="m58 6h2v3h-2z" fill="#f9bb4b"/><path d="m46 12h2v2h-2z" fill="#f4f4e6"/><path d="m50 12h2v2h-2z" fill="#f4f4e6"/></g></svg>