<svg height="512" viewBox="0 0 64 64" width="512" xmlns="http://www.w3.org/2000/svg"><g id="flat"><path d="m13 3h38v58h-38z" fill="#50b4f8"/><path d="m17 7h30v4h-30z" fill="#f4f4e6"/><path d="m17 11h30v6h-30z" fill="#2d75bb"/><path d="m20 22h24v4h-24z" fill="#cdeef6"/><path d="m47 57h-30v-18s2 10 15 10 15-10 15-10z" fill="#2d75bb"/><circle cx="32" cy="43" fill="#fcf05a" r="2"/><circle cx="32" cy="34" fill="#fcf05a" r="3"/><g fill="#f9bb4b"><path d="m43 29h2v2h-2z"/><path d="m39 29h2v2h-2z"/><path d="m19 29h2v2h-2z"/><path d="m23 29h2v2h-2z"/></g><path d="m43 54h-3v-2h2v-3h2v4a1 1 0 0 1 -1 1z" fill="#f4f4e6"/></g></svg>