<svg height="512" viewBox="0 0 64 64" width="512" xmlns="http://www.w3.org/2000/svg"><g id="flat"><path d="m37 19v-3h-30l-4 4v24l4 4h30v-3h24v-26z" fill="#2d75bb"/><path d="m42 26h12v12h-12z" fill="#394d5c"/><g fill="#fcf05a"><path d="m41 23h2v3h-2z"/><path d="m45 23h2v3h-2z"/><path d="m49 23h2v3h-2z"/><path d="m53 23h2v3h-2z"/><path d="m39 37h3v2h-3z"/><path d="m39 33h3v2h-3z"/><path d="m39 29h3v2h-3z"/><path d="m39 25h3v2h-3z"/><path d="m53 38h2v3h-2z"/><path d="m49 38h2v3h-2z"/><path d="m45 38h2v3h-2z"/><path d="m41 38h2v3h-2z"/><path d="m54 25h3v2h-3z"/><path d="m54 29h3v2h-3z"/><path d="m54 33h3v2h-3z"/><path d="m54 37h3v2h-3z"/><path d="m32 19h2v2h-2z"/><path d="m28 19h2v2h-2z"/><path d="m24 19h2v2h-2z"/><path d="m20 19h2v2h-2z"/><path d="m16 19h2v2h-2z"/></g><path d="m16 23h16v18h-16z" fill="#394d5c"/><path d="m12 19h2v2h-2z" fill="#fcf05a"/><path d="m8 19h2v2h-2z" fill="#fcf05a"/><path d="m32 43h2v2h-2z" fill="#fcf05a"/><path d="m28 43h2v2h-2z" fill="#fcf05a"/><path d="m24 43h2v2h-2z" fill="#fcf05a"/><path d="m20 43h2v2h-2z" fill="#fcf05a"/><path d="m16 43h2v2h-2z" fill="#fcf05a"/><path d="m12 43h2v2h-2z" fill="#fcf05a"/><path d="m8 43h2v2h-2z" fill="#fcf05a"/><path d="m6 23h2v2h-2z" fill="#fcf05a"/><path d="m6 27h2v2h-2z" fill="#fcf05a"/><path d="m6 31h2v2h-2z" fill="#fcf05a"/><path d="m6 35h2v2h-2z" fill="#fcf05a"/><path d="m6 39h2v2h-2z" fill="#fcf05a"/><path d="m32 27v2h-6.59l-9.41 9.41v-2.83l8.59-8.58z" fill="#f9bb4b"/><path d="m32 31v2h-4.59l-8 8h-2.82l10-10z" fill="#f9bb4b"/><path d="m32 35v2h-2.59l-3.99 4h-2.83l6-6z" fill="#f9bb4b"/><path d="m32 23h5v2h-5z" fill="#f4f4e6"/><path d="m32 27h5v2h-5z" fill="#f4f4e6"/><path d="m32 31h5v2h-5z" fill="#f4f4e6"/><path d="m32 35h5v2h-5z" fill="#f4f4e6"/><path d="m32 39h5v2h-5z" fill="#f4f4e6"/><path d="m11 23h5v2h-5z" fill="#f4f4e6"/><path d="m11 27h5v2h-5z" fill="#f4f4e6"/><path d="m11 31h5v2h-5z" fill="#f4f4e6"/><path d="m11 35h5v2h-5z" fill="#f4f4e6"/><path d="m11 39h5v2h-5z" fill="#f4f4e6"/><path d="m51 35h-6v-2h4v-4h2z" fill="#f4f4e6"/></g></svg>