<svg height="512" viewBox="0 0 64 64" width="512" xmlns="http://www.w3.org/2000/svg"><g id="flat"><path d="m53 17v2h-20v31h28v-24-12h-5z" fill="#7d8d9c"/><g fill="#394d5c"><path d="m33 52h-30v-33h4l8-7h18z"/><path d="m45 30.929h2v14.142h-2z" transform="matrix(.707 -.707 .707 .707 -13.397 43.657)"/><path d="m48 27.929h2v14.142h-2z" transform="matrix(.707 -.707 .707 .707 -10.397 44.899)"/></g><path d="m48.379 23.672h4.243v5.657h-4.243z" fill="#fcf05a" transform="matrix(.707 -.707 .707 .707 -3.947 43.471)"/><path d="m36 34.586h2v2.828h-2z" fill="#f4f4e6" transform="matrix(.707 -.707 .707 .707 -14.619 36.707)"/><path d="m39.5 37.379h2v4.243h-2z" fill="#f4f4e6" transform="matrix(.707 -.707 .707 .707 -16.069 40.207)"/><path d="m6 22h2v2h-2z" fill="#7d8d9c"/><path d="m6 47h2v2h-2z" fill="#7d8d9c"/><path d="m7 27v17h4v4h6v-32l-6 6v5z" fill="#aabece"/><path d="m21 16h8v4h-8z" fill="#fcf05a"/><path d="m20 23h2v6h-2z" fill="#7d8d9c"/><path d="m24 23h2v6h-2z" fill="#7d8d9c"/><circle cx="41" cy="30" fill="#f4f4e6" r="4"/><path d="m53 17v2.441a15.981 15.981 0 0 1 -20 24.4v6.159h28v-36h-5z" fill="#aabece"/><path d="m56 17h2v2h-2z" fill="#f4f4e6"/><path d="m50 45h2v2h-2z" fill="#f4f4e6"/><path d="m58 47h-4v-2h2v-4h2z" fill="#f4f4e6"/><path d="m60 11h2v42h-2z" fill="#394d5c"/></g></svg>