<svg height="512" viewBox="0 0 64 64" width="512" xmlns="http://www.w3.org/2000/svg"><g id="flat"><rect fill="#195c85" height="48" rx="2" width="58" x="3" y="3"/><path d="m27 51h10l4 6h-18z" fill="#cfdfe8"/><path d="m16 57h32v4h-32z" fill="#aabece"/><path d="m3 43h58a0 0 0 0 1 0 0v6a2 2 0 0 1 -2 2h-54a2 2 0 0 1 -2-2v-6a0 0 0 0 1 0 0z" fill="#aabece"/><path d="m31 46h2v2h-2z" fill="#f4f4e6"/><path d="m17 11h30v28h-30z" fill="#f4f4e6"/><path d="m37 7h8v4h-8z" fill="#f9bb4b"/><path d="m21 15h22v20h-22z" fill="#f9bb4b"/><path d="m24 18h2v2h-2z" fill="#f4f4e6"/><path d="m40 32h-5v-2h3v-4h2z" fill="#f4f4e6"/><path d="m31 30h2v2h-2z" fill="#f4f4e6"/><path d="m12 12v2h-5.88l-3.12 3.12v-2.83l2.29-2.29z" fill="#7d8d9c"/><path d="m12 20v2h-5.88l-3.12 3.12v-2.83l2.29-2.29z" fill="#7d8d9c"/><path d="m12 28v2h-5.88l-3.12 3.12v-2.83l2.29-2.29z" fill="#7d8d9c"/><path d="m12 36v2h-5.88l-3.12 3.12v-2.83l2.29-2.29z" fill="#7d8d9c"/><path d="m61 32.88v2.83l-2.29 2.29h-6.71v-2h5.88z" fill="#7d8d9c"/><path d="m61 24.88v2.83l-2.29 2.29h-6.71v-2h5.88z" fill="#7d8d9c"/><path d="m61 16.88v2.83l-2.29 2.29h-6.71v-2h5.88z" fill="#7d8d9c"/><path d="m61 8.88v2.83l-2.29 2.29h-6.71v-2h5.88z" fill="#7d8d9c"/><g fill="#f9bb4b"><path d="m11 11h6v4h-6z"/><path d="m11 19h6v4h-6z"/><path d="m11 27h6v4h-6z"/><path d="m11 35h6v4h-6z"/><path d="m47 11h6v4h-6z"/><path d="m47 19h6v4h-6z"/><path d="m47 27h6v4h-6z"/><path d="m47 35h6v4h-6z"/></g></g></svg>