<svg height="512" viewBox="0 0 64 64" width="512" xmlns="http://www.w3.org/2000/svg"><g id="flat"><path d="m5 3h54a2 2 0 0 1 2 2v38a0 0 0 0 1 0 0h-58a0 0 0 0 1 0 0v-38a2 2 0 0 1 2-2z" fill="#394d5c"/><path d="m3 43h58a0 0 0 0 1 0 0v6a2 2 0 0 1 -2 2h-54a2 2 0 0 1 -2-2v-6a0 0 0 0 1 0 0z" fill="#aabece"/><path d="m7 7h50v32h-50z" fill="#50b4f8"/><path d="m41 57h-18l4-6h10z" fill="#cfdfe8"/><path d="m17 57h30a2 2 0 0 1 2 2v2a0 0 0 0 1 0 0h-34a0 0 0 0 1 0 0v-2a2 2 0 0 1 2-2z" fill="#aabece"/><g fill="#f4f4e6"><path d="m31 46h2v2h-2z"/><path d="m18.306 29.72a7.6 7.6 0 0 1 -2.614-5.535 9.04 9.04 0 0 1 2.614-5.9l1.388 1.44-.694-.725.7.718a7.1 7.1 0 0 0 -2 4.481 5.7 5.7 0 0 0 2 4.081z"/><path d="m16.229 32.72c-2.9-2.793-4.322-5.8-4.225-8.945.156-4.984 4.1-8.394 4.271-8.537l1.3 1.524-.652-.762.649.761c-.034.029-3.45 3-3.569 7.092-.074 2.548 1.142 5.046 3.614 7.427z"/><path d="m45.694 29.72-1.388-1.44a5.694 5.694 0 0 0 2-4.1 7.023 7.023 0 0 0 -2-4.465l1.388-1.44a9.04 9.04 0 0 1 2.614 5.9 7.6 7.6 0 0 1 -2.614 5.545z"/><path d="m47.771 32.72-1.388-1.44c2.472-2.38 3.688-4.88 3.617-7.427-.119-4.09-3.535-7.063-3.569-7.092l1.3-1.523c.168.143 4.115 3.553 4.271 8.537.091 3.142-1.33 6.152-4.231 8.945z"/></g><path d="m32 34a11 11 0 1 0 -11-11 11.013 11.013 0 0 0 11 11zm2.606-2.386a17.324 17.324 0 0 0 2.639-4.614h2.815a9.044 9.044 0 0 1 -5.454 4.614zm6.394-8.614a8.971 8.971 0 0 1 -.233 2h-2.967a10.251 10.251 0 0 0 0-4h2.964a8.971 8.971 0 0 1 .236 2zm-.94-4h-2.815a17.324 17.324 0 0 0 -2.639-4.614 9.044 9.044 0 0 1 5.454 4.614zm-7.06-3.414a16.022 16.022 0 0 1 2.084 3.414h-2.084zm0 5.414h2.759a8.385 8.385 0 0 1 0 4h-2.759zm0 6h2.081a16.176 16.176 0 0 1 -2.081 3.408zm-2 3.414a16.022 16.022 0 0 1 -2.084-3.414h2.084zm0-5.414h-2.759a8.385 8.385 0 0 1 0-4h2.759zm0-6h-2.081a16.176 16.176 0 0 1 2.081-3.408zm-1.606-4.614a17.324 17.324 0 0 0 -2.639 4.614h-2.815a9.044 9.044 0 0 1 5.454-4.614zm-6.394 8.614a8.971 8.971 0 0 1 .233-2h2.967a10.251 10.251 0 0 0 0 4h-2.967a8.971 8.971 0 0 1 -.233-2zm3.755 4a17.324 17.324 0 0 0 2.639 4.614 9.044 9.044 0 0 1 -5.454-4.614z" fill="#fcf05a"/></g></svg>