<svg height="512" viewBox="0 0 64 64" width="512" xmlns="http://www.w3.org/2000/svg"><g id="flat"><path d="m52 61h-40a2 2 0 0 1 -2-2v-46l7-8h3v16h30v-16h2a2 2 0 0 1 2 2v52a2 2 0 0 1 -2 2z" fill="#50b4f8"/><circle cx="32" cy="30" fill="#2d75bb" r="16"/><path d="m20 3h18v18h-18z" fill="#f4f3ce"/><path d="m24 7h6v10h-6z" fill="#50b4f8"/><path d="m38 6h12v15h-12z" fill="#aabece"/><path d="m14 53h4v4h-4z" fill="#2d75bb"/><path d="m46 53h4v4h-4z" fill="#2d75bb"/><path d="m24 37h16a2 2 0 0 1 2 2v22a0 0 0 0 1 0 0h-20a0 0 0 0 1 0 0v-22a2 2 0 0 1 2-2z" fill="#f4f3ce"/><g fill="#f9bb4b"><path d="m26 41h12v4h-12z"/><path d="m25 48h14v2h-14z"/><path d="m25 52h7v2h-7z"/><path d="m34 52h5v2h-5z"/><path d="m25 56h14v2h-14z"/></g><circle cx="32" cy="30" fill="#f4f4e6" r="3"/><path d="m15 19h-2v-4a1 1 0 0 1 .2-.6l3-4 1.6 1.2-2.8 3.733z" fill="#f4f4e6"/><path d="m13 21h2v2h-2z" fill="#f4f4e6"/><path d="m13 41h2v9h-2z" fill="#f4f4e6"/></g></svg>