<svg height="512" viewBox="0 0 64 64" width="512" xmlns="http://www.w3.org/2000/svg"><g id="flat"><rect fill="#7d8d9c" height="58" rx="2" width="58" x="3" y="3"/><circle cx="32" cy="32" fill="#394d5c" r="22"/><g fill="#f4f4e6"><path d="m43.041 12a20.866 20.866 0 0 0 -11.041-3.161c10 10 0 19.161 0 19.161a3.986 3.986 0 0 1 3.388 1.9c1.988-.593 10.935-6.093 7.653-17.9z"/><path d="m53.4 26.025-.129-.025c-7 8-17.271 6-17.271 6a3.966 3.966 0 0 1 -.74 2.3c1.416 1.61 9.792 8.993 17.74 4.832a20.748 20.748 0 0 0 .4-13.112z"/><path d="m33.063 35.839a3.834 3.834 0 0 1 -3.224-.481c-.786 1.834-3.939 12.542 3.115 19.642a20.885 20.885 0 0 0 12.7-5.014c-10.508-1.767-12.288-11.572-12.591-14.147z"/><path d="m28 32a3.972 3.972 0 0 1 .624-2.128c-2.124-.672-12.824-1.085-16.524 11.128a21.013 21.013 0 0 0 6.908 9.8c.242-12.552 8.992-17.8 8.992-17.8l.077-.232a4.049 4.049 0 0 1 -.077-.768z"/><path d="m30.872 28.181c-.467-2.433-4.532-9.706-12.872-13.4a21.062 21.062 0 0 0 -7.271 8.878c9.075-1.4 16.79 4.592 18.016 6.033a3.994 3.994 0 0 1 2.127-1.511z"/></g><circle cx="9" cy="9" fill="#fcf05a" r="2"/><circle cx="55" cy="9" fill="#fcf05a" r="2"/><circle cx="9" cy="55" fill="#fcf05a" r="2"/><circle cx="55" cy="55" fill="#fcf05a" r="2"/><circle cx="32" cy="32" fill="#7d8d9c" r="5"/><path d="m32 7a25 25 0 1 0 25 25 25 25 0 0 0 -25-25zm0 46a21 21 0 1 1 21-21 21 21 0 0 1 -21 21z" fill="#aabece"/></g></svg>