<svg height="512" viewBox="0 0 64 64" width="512" xmlns="http://www.w3.org/2000/svg"><g id="flat"><path d="m22 3h20v14h-20z" fill="#aabece"/><path d="m20 17h24v36h-24z" fill="#2d75bb"/><path d="m42 57s-3 4-10 4-10-4-10-4v-4h20z" fill="#50b4f8"/><path d="m32 39a5 5 0 0 1 5 5v9a0 0 0 0 1 0 0h-10a0 0 0 0 1 0 0v-9a5 5 0 0 1 5-5z" fill="#f9bb4b"/><path d="m26 9h4v4h-4z" fill="#f4f4e6"/><path d="m34 9h4v4h-4z" fill="#f4f4e6"/><path d="m31 48h2v2h-2z" fill="#d9176c"/><path d="m31 44h2v2h-2z" fill="#d9176c"/><path d="m29 36h-3a3 3 0 0 1 -3-3v-4a3 3 0 0 1 3-3h5v2h-5a1 1 0 0 0 -1 1v4a1 1 0 0 0 1 1h3v-2h-2v-2h3a1 1 0 0 1 1 1v3a2 2 0 0 1 -2 2z" fill="#50b4f8"/><path d="m40 29a3 3 0 0 0 -3-3h-3a1 1 0 0 0 -1 1v8a1 1 0 0 0 1 1h3a2.987 2.987 0 0 0 2.22-5 2.981 2.981 0 0 0 .78-2zm-5-1h2a1 1 0 0 1 0 2h-2zm2 6h-2v-2h2a1 1 0 0 1 0 2z" fill="#50b4f8"/><g fill="#f4f4e6"><path d="m25 24h-2v-4h6v2h-4z"/><path d="m31 20h2v2h-2z"/></g></g></svg>