<svg height="512" viewBox="0 0 64 64" width="512" xmlns="http://www.w3.org/2000/svg"><g id="flat"><path d="m11 3h42v58h-42z" fill="#394d5c"/><circle cx="32" cy="23" fill="#cfdfe8" r="16"/><path d="m15.027 14.451-1.785-.9a21.178 21.178 0 0 1 6.158-7.351l1.2 1.6a19.187 19.187 0 0 0 -5.573 6.651z" fill="#fcf05a"/><circle cx="32" cy="23" fill="#aabece" r="10"/><circle cx="32" cy="23" fill="#cfdfe8" r="2"/><g fill="#5a6470"><path d="m31 16h2v2h-2z"/><path d="m37 22h2v2h-2z"/><path d="m31 28h2v2h-2z"/><path d="m25 22h2v2h-2z"/><path d="m27 18h2v2h-2z"/><path d="m35 18h2v2h-2z"/><path d="m27 26h2v2h-2z"/><path d="m35 26h2v2h-2z"/></g><path d="m14 6h2v2h-2z" fill="#f4f4e6"/><path d="m48 6h2v2h-2z" fill="#f4f4e6"/><path d="m14 38h2v2h-2z" fill="#f4f4e6"/><path d="m48 38h2v2h-2z" fill="#f4f4e6"/><path d="m25 51v-4h-4v-4h-6v4 10h10 8v-6z" fill="#cfdfe8"/><path d="m25 47 15.973-10.751-7.973 14.751h-8z" fill="#7d8d9c"/><path d="m37 53h8v4h-8z" fill="#fcf05a"/><path d="m22 54h-3a1 1 0 0 1 -1-1v-3h2v2h2z" fill="#f4f4e6"/></g></svg>