<svg height="512" viewBox="0 0 64 64" width="512" xmlns="http://www.w3.org/2000/svg"><g id="flat"><path d="m51 58h-17v-2h16v-6h2v7a1 1 0 0 1 -1 1z" fill="#50b4f8"/><path d="m18 62h-2v-3a1 1 0 0 0 -1-1 3 3 0 0 1 -3-3v-4h2v4a1 1 0 0 0 1 1 3 3 0 0 1 3 3z" fill="#50b4f8"/><path d="m19 3h26v6h-26z" fill="#50b4f8"/><path d="m13 5h6a0 0 0 0 1 0 0v4a0 0 0 0 1 0 0h-8a0 0 0 0 1 0 0v-2a2 2 0 0 1 2-2z" fill="#7d8d9c"/><path d="m11 9h4v21h-4z" fill="#394d5c"/><rect fill="#fcf05a" height="22" rx="2" width="6" x="19" y="29"/><path d="m19 48-4-2v-12l4-2z" fill="#e97424"/><path d="m11 48h-2a2 2 0 0 1 -2-2v-12a2 2 0 0 1 2-2h2z" fill="#2d75bb"/><path d="m11 30h4a0 0 0 0 1 0 0v20a2 2 0 0 1 -2 2 2 2 0 0 1 -2-2v-20a0 0 0 0 1 0 0z" fill="#f9bb4b"/><path d="m5 38h2a0 0 0 0 1 0 0v4a0 0 0 0 1 0 0h-2a2 2 0 0 1 -2-2 2 2 0 0 1 2-2z" fill="#fcf05a"/><g fill="#e97424"><path d="m22 33h3v2h-3z"/><path d="m22 37h3v2h-3z"/><path d="m22 41h3v2h-3z"/><path d="m22 45h3v2h-3z"/></g><path d="m11 38h4v4h-4z" fill="#fcf05a"/><path d="m45 5h8a0 0 0 0 1 0 0v4a0 0 0 0 1 0 0h-6a2 2 0 0 1 -2-2v-2a0 0 0 0 1 0 0z" fill="#7d8d9c" transform="matrix(-1 0 0 -1 98 14)"/><path d="m49 9h4v21h-4z" fill="#394d5c" transform="matrix(-1 0 0 -1 102 39)"/><rect fill="#fcf05a" height="22" rx="2" transform="matrix(-1 0 0 -1 84 80)" width="6" x="39" y="29"/><path d="m45 48 4-2v-12l-4-2z" fill="#e97424"/><path d="m53 48h2a2 2 0 0 0 2-2v-12a2 2 0 0 0 -2-2h-2z" fill="#2d75bb"/><path d="m51 30a2 2 0 0 1 2 2v20a0 0 0 0 1 0 0h-4a0 0 0 0 1 0 0v-20a2 2 0 0 1 2-2z" fill="#f9bb4b" transform="matrix(-1 0 0 -1 102 82)"/><path d="m59 38h2a0 0 0 0 1 0 0v4a0 0 0 0 1 0 0h-2a2 2 0 0 1 -2-2 2 2 0 0 1 2-2z" fill="#fcf05a" transform="matrix(-1 0 0 -1 118 80)"/><path d="m39 33h3v2h-3z" fill="#e97424"/><path d="m39 37h3v2h-3z" fill="#e97424"/><path d="m39 41h3v2h-3z" fill="#e97424"/><path d="m39 45h3v2h-3z" fill="#e97424"/><path d="m49 38h4v4h-4z" fill="#fcf05a" transform="matrix(-1 0 0 -1 102 80)"/><path d="m29 55h6v4h-6z" fill="#fcf05a"/></g></svg>