<svg height="512" viewBox="0 0 64 64" width="512" xmlns="http://www.w3.org/2000/svg"><g id="flat"><path d="m19 12h8v10l-2 2h-4l-2-2z" fill="#394d5c"/><path d="m21 8h4v4h-4z" fill="#aabece" transform="matrix(-1 0 0 -1 46 20)"/><path d="m22 3h2l1 2v3h-4v-3z" fill="#5a6470"/><path d="m19 12h8v4h-8z" fill="#55b56a" transform="matrix(-1 0 0 -1 46 28)"/><path d="m21 24h4v4h-4z" fill="#2d75bb"/><path d="m23 19h4v2h-4z" fill="#2d75bb"/><path d="m19 19h4v2h-4z" fill="#c8d952"/><path d="m41 36h4v4h-4z" fill="#2d75bb"/><path d="m31 10v44a3 3 0 0 1 -3 3 3 3 0 0 1 -3-3v-26h-4v26a7 7 0 0 0 7 7 7 7 0 0 0 7-7v-44a3 3 0 0 1 3-3 3 3 0 0 1 3 3v26h4v-26a7 7 0 0 0 -7-7 7 7 0 0 0 -7 7z" fill="#50b4f8"/><path d="m46 52h-6v-10l1-2h4l1 2z" fill="#55b56a"/></g></svg>