<svg height="512" viewBox="0 0 64 64" width="512" xmlns="http://www.w3.org/2000/svg"><g id="flat"><rect fill="#394d5c" height="28" rx="2" width="58" x="3" y="28"/><g fill="#7d8d9c"><path d="m7 32h6v4h-6z"/><path d="m7 40h4v4h-4z"/><path d="m17 32h4v4h-4z"/><path d="m15 40h4v4h-4z"/><path d="m25 32h4v4h-4z"/><path d="m23 40h4v4h-4z"/><path d="m33 32h4v4h-4z"/><path d="m31 40h4v4h-4z"/><path d="m41 32h4v4h-4z"/><path d="m49 32h8v4h-8z"/><path d="m39 40h4v4h-4z"/><path d="m19 48h4v4h-4z"/><path d="m45 48h4v4h-4z"/><path d="m53 48h4v4h-4z"/><path d="m27 48h14v4h-14z"/><path d="m7 48h8v4h-8z"/><path d="m47 40h10v4h-10z"/></g><path d="m19 24h26v4h-26z" fill="#aabece"/><path d="m29 20h6v4h-6z" fill="#5a6470"/><path d="m33 20h-2v-3a3 3 0 0 1 3-3h5a1 1 0 0 0 1-1v-6h2v6a3 3 0 0 1 -3 3h-5a1 1 0 0 0 -1 1z" fill="#32b1cc"/></g></svg>