<svg height="512" viewBox="0 0 64 64" width="512" xmlns="http://www.w3.org/2000/svg"><g id="flat"><path d="m11 56v-49a4 4 0 0 1 4-4h28a4 4 0 0 1 4 4v12l6 3v7h-4v6l4 4v17a1 1 0 0 1 -1 1h-40a1 1 0 0 1 -1-1z" fill="#394d5c"/><path d="m49 61h-34a4 4 0 0 1 -4-4v-1s7-3 21-3 21 3 21 3v1a4 4 0 0 1 -4 4z" fill="#7d8d9c"/><path d="m25 26h-3a1 1 0 0 0 -1 1v3h2v-2h2v3a1 1 0 0 1 -1 1h-4a1 1 0 0 1 -1-1v-5h-2v5a3 3 0 0 0 3 3h4a3 3 0 0 0 3-3v-3a2 2 0 0 0 -2-2z" fill="#fcf05a"/><path d="m24 17a2.981 2.981 0 0 0 -2 .78 2.987 2.987 0 0 0 -5 2.22v3a1 1 0 0 0 1 1h8a1 1 0 0 0 1-1v-3a3 3 0 0 0 -3-3zm-5 3a1 1 0 0 1 2 0v2h-2zm6 2h-2v-2a1 1 0 0 1 2 0z" fill="#fcf05a"/><path d="m25 46h-7a1 1 0 0 0 -1 1v2a1 1 0 0 0 .757.97l4 1 .486-1.94-3.243-.811v-.219h6v2h2v-6h-2z" fill="#fcf05a"/><path d="m26 36h-4a1 1 0 0 0 -1 1v3h-2v-3h-2v4a1 1 0 0 0 1 1h8a1 1 0 0 0 1-1v-4a1 1 0 0 0 -1-1zm-1 4h-2v-2h2z" fill="#fcf05a"/><path d="m29 7 4 6h-8z" fill="#f4f4e6"/><path d="m25 36h18v8h-18z" fill="#dd3e46" transform="matrix(0 -1 1 0 -6 74)"/><g fill="#7d8d9c"><path d="m16 11h-2v-4a1 1 0 0 1 1-1h4v2h-3z"/><path d="m44 13h-2v-5h-3v-2h4a1 1 0 0 1 1 1z"/><path d="m42 15h2v2h-2z"/><circle cx="40" cy="24" r="3"/></g></g></svg>