<svg height="512" viewBox="0 0 64 64" width="512" xmlns="http://www.w3.org/2000/svg"><g id="flat"><path d="m57 7a3.992 3.992 0 0 1 -3 3.87 3.657 3.657 0 0 1 -1 .13h-13l-4-2v-4l4-2h13a3.657 3.657 0 0 1 1 .13 3.992 3.992 0 0 1 3 3.87z" fill="#50b4f8"/><path d="m40 61h-24l8-4h8z" fill="#2d75bb"/><path d="m24 53h8v4h-8z" fill="#50b4f8"/><path d="m26 15v38h4v-38a6 6 0 0 1 6-6v-4a10 10 0 0 0 -10 10z" fill="#394d5c"/><g fill="#2d75bb"><path d="m40 3h2v3h-2z"/><path d="m44 3h2v3h-2z"/><path d="m48 3h2v3h-2z"/><path d="m40 8h2v3h-2z"/><path d="m44 8h2v3h-2z"/><path d="m48 8h2v3h-2z"/><path d="m54 3.13v2.87h-2v-3h1a3.657 3.657 0 0 1 1 .13z"/><path d="m54 8v2.87a3.657 3.657 0 0 1 -1 .13h-1v-3z"/><path d="m26 47h4v6h-4z"/></g><path d="m15 55h-8v-2h8a1 1 0 0 0 1-1v-2a3 3 0 0 1 3-3h7v2h-7a1 1 0 0 0 -1 1v2a3 3 0 0 1 -3 3z" fill="#50b4f8"/><path d="m26 24h4v4h-4z" fill="#e1462b"/><path d="m26 28h4v4h-4z" fill="#fcf05a"/></g></svg>