<svg height="512" viewBox="0 0 64 64" width="512" xmlns="http://www.w3.org/2000/svg"><g id="flat"><path d="m23 53h-10v-10l2-2h6l2 2z" fill="#7d8d9c"/><path d="m15 53h6v4h-6z" fill="#ffd782"/><path d="m13 49h10v4h-10z" fill="#cfdfe8"/><path d="m21 41h-6v-3l1-1h4l1 1z" fill="#394d5c"/><path d="m13 44h4v2h-4z" fill="#f4f4e6"/><path d="m19 44h4v2h-4z" fill="#f4f4e6"/><path d="m33 27h16a2 2 0 0 1 2 2v26a0 0 0 0 1 0 0h-20a0 0 0 0 1 0 0v-26a2 2 0 0 1 2-2z" fill="#394d5c"/><path d="m35 55h12v6h-12z" fill="#ffd782"/><path d="m38 58h2v3h-2z" fill="#e97424"/><path d="m42 58h2v3h-2z" fill="#e97424"/><path d="m16 16.5v20.5h4v-20.5a9.5 9.5 0 0 1 9.5-9.5 9.5 9.5 0 0 1 9.5 9.5v10.5h4v-10.5a13.5 13.5 0 0 0 -13.5-13.5 13.5 13.5 0 0 0 -13.5 13.5z" fill="#50b4f8"/><path d="m31 55h2v3h-2z" fill="#f9bb4b"/><path d="m49 55h2v3h-2z" fill="#f9bb4b"/><path d="m38 47h6v4h-6z" fill="#fcf05a"/><g fill="#f4f4e6"><path d="m48 37h-2v-5h-4v-2h6z"/><path d="m46 39h2v2h-2z"/></g></g></svg>