<svg height="512" viewBox="0 0 64 64" width="512" xmlns="http://www.w3.org/2000/svg"><g id="flat"><path d="m5 3h54a2 2 0 0 1 2 2v38a0 0 0 0 1 0 0h-58a0 0 0 0 1 0 0v-38a2 2 0 0 1 2-2z" fill="#394d5c"/><path d="m3 43h58a0 0 0 0 1 0 0v6a2 2 0 0 1 -2 2h-54a2 2 0 0 1 -2-2v-6a0 0 0 0 1 0 0z" fill="#aabece"/><path d="m7 7h50v32h-50z" fill="#7d8d9c"/><path d="m41 57h-18l4-6h10z" fill="#cfdfe8"/><path d="m17 57h30a2 2 0 0 1 2 2v2a0 0 0 0 1 0 0h-34a0 0 0 0 1 0 0v-2a2 2 0 0 1 2-2z" fill="#aabece"/><g fill="#f4f4e6"><path d="m31 46h2v2h-2z"/><path d="m54 36h-6v-2h4v-6h2z"/><path d="m44 34h2v2h-2z"/><path d="m12 21h-2v-11h6v2h-4z"/></g><path d="m20 17h2v2h-2z" fill="#fcf05a"/><path d="m24 20h2v2h-2z" fill="#fcf05a"/></g></svg>