<svg height="512" viewBox="0 0 64 64" width="512" xmlns="http://www.w3.org/2000/svg"><g id="flat"><path d="m12 7h2v4h-2v4h2v4h-2v24h2v4h-2v4h2v4h-2v4a2 2 0 0 0 2 2h36a2 2 0 0 0 2-2v-17h-2v-4h2v-4h-2v-4h2v-25a2 2 0 0 0 -2-2h-36a2 2 0 0 0 -2 2z" fill="#2d75bb"/><path d="m29 42h8v30h-8z" fill="#50b4f8" transform="matrix(0 -1 1 0 -24 90)"/><path d="m22 57h4v4h-4z" fill="#fcf05a" transform="matrix(0 -1 1 0 -35 83)"/><path d="m30 57h4v4h-4z" fill="#fcf05a" transform="matrix(0 -1 1 0 -27 91)"/><path d="m38 56h2v2h-2z" fill="#f4f4e6"/><path d="m42 56h2v2h-2z" fill="#f4f4e6"/><path d="m18 3h20v20h-20z" fill="#cfdfe8"/><g fill="#f9bb4b"><path d="m21 49h-2v-2h-2v-2h4z"/><path d="m29 49h-2v-4h4v2h-2z"/><path d="m31 39h-4v-4h2v2h2z"/><path d="m20 39h-4v-2h2v-2h2z"/><path d="m23 35h2v3h-2z"/><path d="m17 41h3v2h-3z"/><path d="m28 41h3v2h-3z"/><path d="m23 46h2v3h-2z"/></g><path d="m46 49h-12v-10l5-6h7z" fill="#cfdfe8"/><path d="m43 46h-6v-2h4v-4h2z" fill="#f4f4e6"/><path d="m41 36h2v2h-2z" fill="#f4f4e6"/><path d="m42 11h10v4h-10z" fill="#50b4f8"/><path d="m42 19h10v4h-10z" fill="#50b4f8"/><path d="m47 6h2v2h-2z" fill="#fcf05a"/><path d="m43 6h2v2h-2z" fill="#fcf05a"/><path d="m34 13a5.47 5.47 0 0 1 -.09 1 5.936 5.936 0 0 1 -1.02 2.48 6.288 6.288 0 0 1 -1.41 1.41 5.936 5.936 0 0 1 -2.48 1.02 5.6 5.6 0 0 1 -2 0 5.82 5.82 0 0 1 -2.47-1.02 5.558 5.558 0 0 1 -1.41-1.41 5.823 5.823 0 0 1 -1.03-2.48 5.6 5.6 0 0 1 0-2 5.923 5.923 0 0 1 2.44-3.88 5.711 5.711 0 0 1 2.47-1.03 5.6 5.6 0 0 1 2 0 5.82 5.82 0 0 1 2.47 1.02 5.983 5.983 0 0 1 1.42 1.42 5.82 5.82 0 0 1 1.02 2.47 5.47 5.47 0 0 1 .09 1z" fill="#fcf05a"/><path d="m33.91 14h-3.5l2.48 2.48a6.288 6.288 0 0 1 -1.41 1.41l-2.48-2.48v3.5a5.6 5.6 0 0 1 -2 0v-3.5l-2.47 2.48a5.558 5.558 0 0 1 -1.41-1.41l2.47-2.48h-3.5a5.6 5.6 0 0 1 0-2h3.5l-2.48-2.47a5.764 5.764 0 0 1 1.42-1.41l2.47 2.47v-3.5a5.6 5.6 0 0 1 2 0v3.5l2.47-2.48a5.983 5.983 0 0 1 1.42 1.42l-2.48 2.47h3.5a5.6 5.6 0 0 1 0 2z" fill="#f9bb4b"/><circle cx="18" cy="29" fill="#f4f4e6" r="2"/><circle cx="26" cy="29" fill="#f4f4e6" r="2"/><circle cx="34" cy="29" fill="#f4f4e6" r="2"/><path d="m44 30h2v3h-2z" fill="#fcf05a"/><path d="m40 30h2v3h-2z" fill="#fcf05a"/><circle cx="28" cy="13" fill="#e97424" r="2"/><path d="m20 38h8v8h-8z" fill="#cfdfe8"/></g></svg>