<svg height="512" viewBox="0 0 64 64" width="512" xmlns="http://www.w3.org/2000/svg"><g id="flat"><path d="m32 61c-8.284 0-13-6.716-13-15v-21l7-5h12l7 5v21c0 8.284-4.716 15-13 15z" fill="#2d75bb"/><path d="m26 16h12v4h-12z" fill="#f9bb4b"/><path d="m33 16h-2v-4a1 1 0 0 0 -1-1h-8a3 3 0 0 1 0-6h8a1 1 0 0 0 1-1v-2h2v2a3 3 0 0 1 -3 3h-8a1 1 0 0 0 0 2h8a3 3 0 0 1 3 3z" fill="#50b4f8"/><path d="m28 24h8a0 0 0 0 1 0 0v18a4 4 0 0 1 -4 4 4 4 0 0 1 -4-4v-18a0 0 0 0 1 0 0z" fill="#50b4f8"/><path d="m28 28h8v6h-8z" fill="#f9bb4b"/><path d="m31 37h2v2h-2z" fill="#fcf05a"/><path d="m31 41h2v2h-2z" fill="#fcf05a"/><g fill="#f4f4e6"><path d="m24.293 30.707-2-2a1 1 0 0 1 0-1.414l2-2 1.414 1.414-1.293 1.293 1.293 1.293z"/><path d="m39.707 30.707-1.414-1.414 1.293-1.293-1.293-1.293 1.414-1.414 2 2a1 1 0 0 1 0 1.414z"/><path d="m33 58v-2c.286 0 7-.139 7-8h2c0 9.886-8.91 10-9 10z"/><path d="m29 56h2v2h-2z"/></g></g></svg>