<svg height="512" viewBox="0 0 64 64" width="512" xmlns="http://www.w3.org/2000/svg"><g id="flat"><rect fill="#394d5c" height="42" rx="2" width="58" x="3" y="11"/><path d="m17 15h40v34h-40z" fill="#7d8d9c"/><path d="m48 25-3-3 1-1a2.213 2.213 0 0 1 3 0 2.213 2.213 0 0 1 0 3z" fill="#394d5c"/><path d="m28.398 28.871h21.203v4.243h-21.203z" fill="#cfdfe8" transform="matrix(.707 -.707 .707 .707 -10.492 36.655)"/><path d="m27 42.986 3-6 3 3z" fill="#394d5c"/><circle cx="10" cy="32" fill="#f9bb4b" r="3"/><path d="m8 17h4v4h-4z" fill="#50b4f8"/><path d="m8 21h4v4h-4z" fill="#2d75bb"/><path d="m8 39h4v4h-4z" fill="#2d75bb"/><path d="m8 43h4v4h-4z" fill="#50b4f8"/><g fill="#cfdfe8"><path d="m53 46h-7v-2h6v-4h2v5a1 1 0 0 1 -1 1z"/><path d="m42 44h2v2h-2z"/><path d="m22 23h-2v-4a1 1 0 0 1 1-1h5v2h-4z"/></g></g></svg>