<svg height="512" viewBox="0 0 64 64" width="512" xmlns="http://www.w3.org/2000/svg"><g id="flat"><path d="m59 24h-54a2 2 0 0 0 -2 2v26h10v-20h38v20h10v-26a2 2 0 0 0 -2-2z" fill="#aabece"/><path d="m13 32h38v4h-38z" fill="#7d8d9c"/><path d="m17 41h30v20h-30z" fill="#eae9d3"/><path d="m47 24h-30v-21h22l8 8z" fill="#eae9d3"/><path d="m51 50h-4v-9h-30v9h-4v-14h38z" fill="#394d5c"/><path d="m47 11h-8v-8z" fill="#f4f4e6"/><path d="m7 24h6v4h-6z" fill="#50b4f8"/><path d="m13 24h6v4h-6z" fill="#fcf05a"/><path d="m51 24h6v4h-6z" fill="#dd3e46"/><path d="m46 27h2v2h-2z" fill="#dd3e46"/><path d="m42 27h2v2h-2z" fill="#dd3e46"/><path d="m58 49h-4v-2h2v-5h2z" fill="#f4f4e6"/><path d="m3 40h5v12h-5z" fill="#50b4f8"/><path d="m8 40h5v12h-5z" fill="#fcf05a"/><g fill="#394d5c"><path d="m20 44h12v2h-12z"/><path d="m34 44h10v2h-10z"/><path d="m20 48h5v2h-5z"/><path d="m27 48h17v2h-17z"/><path d="m20 52h10v2h-10z"/><path d="m32 52h12v2h-12z"/><path d="m20 56h15v2h-15z"/><path d="m37 56h7v2h-7z"/></g></g></svg>