<svg height="512" viewBox="0 0 64 64" width="512" xmlns="http://www.w3.org/2000/svg"><g id="flat"><path d="m55 3a4 4 0 0 1 -8 0h-36l-8 8v50h44a4 4 0 0 1 8 0h6v-58z" fill="#55b56a"/><path d="m17 13h30v38h-30z" fill="#cfdfe8"/><path d="m42 16h2v2h-2z" fill="#3e8051"/><path d="m20 16h2v2h-2z" fill="#3e8051"/><path d="m42 46h2v2h-2z" fill="#3e8051"/><path d="m20 46h2v2h-2z" fill="#3e8051"/><path d="m25 17h4v6h-4z" fill="#f9bb4b"/><path d="m29 17h4v6h-4z" fill="#fcf05a"/><path d="m33 17h4v6h-4z" fill="#f9bb4b"/><path d="m25 41h4v6h-4z" fill="#f9bb4b"/><path d="m29 41h4v6h-4z" fill="#fcf05a"/><path d="m33 41h4v6h-4z" fill="#f9bb4b"/><path d="m21 21h4v4h-4z" fill="#fcf05a"/><path d="m21 25h4v4h-4z" fill="#f9bb4b"/><path d="m21 29h4v4h-4z" fill="#fcf05a"/><path d="m21 33h4v4h-4z" fill="#f9bb4b"/><path d="m21 37h4v4h-4z" fill="#fcf05a"/><path d="m35 27h8v4h-8z" fill="#fcf05a"/><path d="m35 31h8v4h-8z" fill="#f9bb4b"/><path d="m30 30h-2v-4h4v2h-2z" fill="#f4f4e6"/><path d="m28 32h2v2h-2z" fill="#f4f4e6"/><path d="m28 36h2v2h-2z" fill="#f4f4e6"/><path d="m56 10h2v8h-2z" fill="#fcf05a"/><path d="m52 14h2v8h-2z" fill="#fcf05a"/><path d="m56 30h2v8h-2z" fill="#fcf05a"/><path d="m52 34h2v8h-2z" fill="#fcf05a"/><path d="m52 24h2v8h-2z" fill="#fcf05a"/><path d="m56 20h2v8h-2z" fill="#fcf05a"/><path d="m52 44h2v8h-2z" fill="#fcf05a"/><path d="m56 40h2v8h-2z" fill="#fcf05a"/><path d="m11.707 9.707-1.414-1.414 2.293-2.293h24.414v2h-23.586z" fill="#f4f4e6"/><path d="m39 6h2v2h-2z" fill="#f4f4e6"/><path d="m43 6h2v2h-2z" fill="#f4f4e6"/><g fill="#fcf05a"><path d="m56 50h2v2h-2z"/><path d="m56 54h2v2h-2z"/><path d="m16 56h2v2h-2z"/><path d="m20 54h2v2h-2z"/><path d="m24 56h2v2h-2z"/><path d="m32 56h2v2h-2z"/><path d="m36 54h2v2h-2z"/><path d="m28 54h2v2h-2z"/><path d="m40 56h2v2h-2z"/><path d="m6 11h2v2h-2z"/><path d="m8 15h2v2h-2z"/><path d="m6 19h2v2h-2z"/><path d="m6 27h2v2h-2z"/><path d="m8 31h2v2h-2z"/><path d="m8 23h2v2h-2z"/><path d="m6 35h2v2h-2z"/><path d="m8 39h2v2h-2z"/><path d="m6 43h2v2h-2z"/><path d="m8 47h2v2h-2z"/><path d="m8 55h2v2h-2z"/><path d="m6 51h2v2h-2z"/><path d="m12 53h2v2h-2z"/></g></g></svg>