<?xml version="1.0" encoding="utf-8"?>
<!-- Generator: Adobe Illustrator 24.2.1, SVG Export Plug-In . SVG Version: 6.00 Build 0)  -->
<svg version="1.1" id="Layer_1" xmlns="http://www.w3.org/2000/svg" xmlns:xlink="http://www.w3.org/1999/xlink" x="0px" y="0px"
	 width="164px" height="64px" viewBox="0 0 164 64" style="enable-background:new 0 0 164 64;" xml:space="preserve">
<style type="text/css">
	.st0{fill:#55B56A;}
	.st1{fill:#394D5C;}
	.st2{fill:#FCF05A;}
	.st3{fill:#F9BB4B;}
	.st4{fill:#CFDFE8;}
</style>
<g id="flat">
	<path class="st0" d="M147.9,46.6v-9.8h4.9v-9.8h-4.9v-9.8h4.9V7.6H11.3v9.8h4.9v9.8h-4.9v9.8h4.9v9.8h-4.9v9.8h141.5v-9.8H147.9z"
		/>
	<path class="st1" d="M116.1,17.4h14.6V32h-14.6V17.4z"/>
	<g>
		<path class="st2" d="M135.7,14.9h4.9v4.9h-4.9V14.9z"/>
		<path class="st2" d="M135.7,24.7h4.9v4.9h-4.9V24.7z"/>
		<path class="st2" d="M135.7,34.4h4.9v4.9h-4.9V34.4z"/>
		<path class="st2" d="M11.3,46.6h12.2v9.8H11.3V46.6z"/>
	</g>
	<path class="st3" d="M23.5,46.6h9.8v9.8h-9.8V46.6z"/>
	<path class="st2" d="M33.2,46.6H43v9.8h-9.8V46.6z"/>
	<path class="st3" d="M43,46.6h9.8v9.8H43V46.6z"/>
	<path class="st2" d="M52.7,46.6h9.8v9.8h-9.8V46.6z"/>
	<path class="st3" d="M62.5,46.6h9.8v9.8h-9.8V46.6z"/>
	<path class="st2" d="M72.2,46.6H82v9.8h-9.8V46.6z"/>
	<path class="st3" d="M82,46.6h9.8v9.8H82V46.6z"/>
	<path class="st2" d="M91.8,46.6h9.8v9.8h-9.8V46.6z"/>
	<path class="st3" d="M101.5,46.6h9.8v9.8h-9.8V46.6z"/>
	<path class="st2" d="M111.3,46.6h9.8v9.8h-9.8V46.6z"/>
	<path class="st3" d="M121,46.6h9.8v9.8H121V46.6z"/>
	<path class="st2" d="M130.8,46.6h9.8v9.8h-9.8V46.6z"/>
	<path class="st3" d="M140.5,46.6h12.2v9.8h-12.2V46.6z"/>
	<path class="st4" d="M116.1,32h4.9v7.3h-4.9V32z"/>
	<path class="st4" d="M125.9,32h4.9v7.3h-4.9V32z"/>
	<path class="st1" d="M86.9,17.4h14.6V32H86.9V17.4z"/>
	<path class="st2" d="M106.4,14.9h4.9v4.9h-4.9V14.9z"/>
	<path class="st2" d="M106.4,24.7h4.9v4.9h-4.9V24.7z"/>
	<path class="st2" d="M106.4,34.4h4.9v4.9h-4.9V34.4z"/>
	<path class="st4" d="M86.9,32h4.9v7.3h-4.9V32z"/>
	<path class="st4" d="M96.6,32h4.9v7.3h-4.9V32z"/>
	<path class="st1" d="M77.1,32H62.5V17.4h14.6V32z"/>
	<path class="st2" d="M52.7,14.9h4.9v4.9h-4.9V14.9z"/>
	<path class="st2" d="M52.7,24.7h4.9v4.9h-4.9V24.7z"/>
	<path class="st2" d="M52.7,34.4h4.9v4.9h-4.9V34.4z"/>
	<path class="st4" d="M72.2,32h4.9v7.3h-4.9V32z"/>
	<path class="st4" d="M62.5,32h4.9v7.3h-4.9V32z"/>
	<path class="st1" d="M47.9,32H33.2V17.4h14.6V32z"/>
	<path class="st2" d="M23.5,14.9h4.9v4.9h-4.9V14.9z"/>
	<path class="st2" d="M23.5,24.7h4.9v4.9h-4.9V24.7z"/>
	<path class="st2" d="M23.5,34.4h4.9v4.9h-4.9V34.4z"/>
	<path class="st4" d="M43,32h4.9v7.3H43V32z"/>
	<path class="st4" d="M33.2,32h4.9v7.3h-4.9V32z"/>
</g>
</svg>
