<svg height="512" viewBox="0 0 64 64" width="512" xmlns="http://www.w3.org/2000/svg"><g id="flat"><path d="m5 45h54a2 2 0 0 1 2 2v10a0 0 0 0 1 0 0h-58a0 0 0 0 1 0 0v-10a2 2 0 0 1 2-2z" fill="#50b4f8"/><path d="m14 49h36a2 2 0 0 1 2 2v6a0 0 0 0 1 0 0h-40a0 0 0 0 1 0 0v-6a2 2 0 0 1 2-2z" fill="#394d5c"/><g fill="#fcf05a"><path d="m15 52h4v2h-4z"/><path d="m21 52h4v2h-4z"/><path d="m27 52h4v2h-4z"/><path d="m33 52h4v2h-4z"/><path d="m39 52h4v2h-4z"/><path d="m45 52h4v2h-4z"/></g><path d="m58 54h-2v-4h-2v-2h3a1 1 0 0 1 1 1z" fill="#2d75bb"/><path d="m6 48h2v2h-2z" fill="#e1462b"/><path d="m35 45h-6v-18l1-2h4l1 2z" fill="#394d5c"/><path d="m32 7a2 2 0 0 1 2 2v16a0 0 0 0 1 0 0h-4a0 0 0 0 1 0 0v-16a2 2 0 0 1 2-2z" fill="#aabece"/><path d="m17 45h-6l-2-18 1-2h4l1 2z" fill="#394d5c"/><path d="m14 25h-4l-2-16a2 2 0 0 1 2-2 2 2 0 0 1 2 2z" fill="#aabece"/><path d="m47 45h6l2-18-1-2h-4l-1 2z" fill="#394d5c"/><path d="m50 25h4l2-16a2 2 0 0 0 -2-2 2 2 0 0 0 -2 2z" fill="#aabece"/></g></svg>