<svg height="512" viewBox="0 0 64 64" width="512" xmlns="http://www.w3.org/2000/svg"><g id="flat"><path d="m10 15h4v6h-4z" fill="#7d8d9c"/><path d="m54 20v-8l-9-9h-33a2 2 0 0 0 -2 2v10h4v18h-4v26a2 2 0 0 0 2 2h9l2-2h18l2 2h9a2 2 0 0 0 2-2v-33h-2v-6z" fill="#394d5c"/><rect fill="#50b4f8" height="36" rx="2" width="30" x="18" y="11"/><rect fill="#7d8d9c" height="4" rx="2" width="22" x="21" y="51"/><path d="m22 35h22v8h-22z" fill="#f4f4e6"/><path d="m25 38h6v2h-6z" fill="#f9bb4b"/><path d="m33 38h2v2h-2z" fill="#f9bb4b"/><path d="m37 38h4v2h-4z" fill="#f9bb4b"/><g fill="#5a6470"><path d="m50 58h-5v-2h4v-6h2v7a1 1 0 0 1 -1 1z"/><path d="m18 56h2v2h-2z"/><path d="m16 58h-2a1 1 0 0 1 -1-1v-9h2v8h1z"/><path d="m13 6h2v2h-2z"/></g><path d="m37 24h-2v-6.308l-1.071 2.679a1 1 0 0 1 -1.858 0l-1.071-2.679v6.308h-2v-9a1 1 0 0 1 1-1h1a1 1 0 0 1 .929.629l1.071 2.679 1.071-2.679a1 1 0 0 1 .929-.629h1a1 1 0 0 1 1 1z" fill="#fcf05a"/><path d="m45 17a3 3 0 0 0 -3-3h-2a1 1 0 0 0 -1 1v8a1 1 0 0 0 1 1h2a2.987 2.987 0 0 0 2.22-5 2.981 2.981 0 0 0 .78-2zm-4-1h1a1 1 0 0 1 0 2h-1zm1 6h-1v-2h1a1 1 0 0 1 0 2z" fill="#fcf05a"/><path d="m21 26h24v2h-24z" fill="#2d75bb"/></g></svg>