<svg height="512" viewBox="0 0 64 64" width="512" xmlns="http://www.w3.org/2000/svg"><g id="flat"><path d="m11 3h42v58h-42z" fill="#394d5c"/><path d="m15 57-4 4v-58h4z" fill="#7d8d9c"/><path d="m49 57 4 4v-58h-4z" fill="#7d8d9c"/><path d="m24 57h-4l-1-2v-8l1-2h4l1 2v8z" fill="#5a6470"/><path d="m34 57h-4l-1-2v-8l1-2h4l1 2v8z" fill="#5a6470"/><path d="m44 57h-4l-1-2v-8l1-2h4l1 2v8z" fill="#5a6470"/><path d="m24 37h-4l-1-2v-8l1-2h4l1 2v8z" fill="#5a6470"/><path d="m34 37h-4l-1-2v-8l1-2h4l1 2v8z" fill="#5a6470"/><path d="m44 37h-4l-1-2v-8l1-2h4l1 2v8z" fill="#5a6470"/><g fill="#50b4f8"><path d="m19 48h3v2h-3z"/><path d="m19 52h3v2h-3z"/><path d="m29 48h3v2h-3z"/><path d="m29 52h3v2h-3z"/><path d="m39 48h3v2h-3z"/><path d="m39 52h3v2h-3z"/><path d="m19 28h3v2h-3z"/><path d="m19 32h3v2h-3z"/><path d="m29 28h3v2h-3z"/><path d="m29 32h3v2h-3z"/><path d="m39 28h3v2h-3z"/><path d="m39 32h3v2h-3z"/></g><path d="m21 40h2v2h-2z" fill="#fcf05a"/><path d="m31 40h2v2h-2z" fill="#fcf05a"/><path d="m26 40h2v2h-2z" fill="#fcf05a"/><path d="m36 40h2v2h-2z" fill="#fcf05a"/><path d="m41 40h2v2h-2z" fill="#fcf05a"/><path d="m39 3h6v4h-6z" fill="#50b4f8"/><path d="m29 3h6v4h-6z" fill="#50b4f8"/><path d="m19 11h26v10h-26z" fill="#5a6470"/><path d="m18 6h2v2h-2z" fill="#fcf05a"/><path d="m22 6h2v2h-2z" fill="#fcf05a"/><path d="m22 14h20v2h-20z" fill="#f4f4e6"/></g></svg>