<svg height="512" viewBox="0 0 64 64" width="512" xmlns="http://www.w3.org/2000/svg"><g id="flat"><rect fill="#aabece" height="48" rx="2" width="24" x="5" y="3"/><path d="m13 51h8v4h-8z" fill="#7d8d9c"/><path d="m27 61h-20l2-6h16z" fill="#394d5c"/><path d="m7 3h2a0 0 0 0 1 0 0v48a0 0 0 0 1 0 0h-2a2 2 0 0 1 -2-2v-44a2 2 0 0 1 2-2z" fill="#394d5c"/><path d="m25 3h2a2 2 0 0 1 2 2v44a2 2 0 0 1 -2 2h-2a0 0 0 0 1 0 0v-48a0 0 0 0 1 0 0z" fill="#394d5c"/><rect fill="#fcf05a" height="4" rx="2" width="8" x="13" y="43"/><g fill="#f4f4e6"><path d="m12 6h2v2h-2z"/><path d="m16 6h2v2h-2z"/><path d="m20 6h2v2h-2z"/><path d="m14 10h2v2h-2z"/><path d="m18 10h2v2h-2z"/><path d="m12 14h2v2h-2z"/><path d="m16 14h2v2h-2z"/><path d="m20 14h2v2h-2z"/><path d="m14 18h2v2h-2z"/><path d="m18 18h2v2h-2z"/><path d="m12 22h2v2h-2z"/><path d="m16 22h2v2h-2z"/><path d="m20 22h2v2h-2z"/><path d="m14 26h2v2h-2z"/><path d="m18 26h2v2h-2z"/><path d="m12 30h2v2h-2z"/><path d="m16 30h2v2h-2z"/><path d="m20 30h2v2h-2z"/><path d="m12 38h2v2h-2z"/><path d="m16 38h2v2h-2z"/><path d="m20 38h2v2h-2z"/><path d="m14 34h2v2h-2z"/><path d="m18 34h2v2h-2z"/></g><rect fill="#aabece" height="48" rx="2" width="24" x="35" y="3"/><path d="m43 51h8v4h-8z" fill="#7d8d9c"/><path d="m57 61h-20l2-6h16z" fill="#394d5c"/><path d="m37 3h2a0 0 0 0 1 0 0v48a0 0 0 0 1 0 0h-2a2 2 0 0 1 -2-2v-44a2 2 0 0 1 2-2z" fill="#394d5c"/><path d="m55 3h2a2 2 0 0 1 2 2v44a2 2 0 0 1 -2 2h-2a0 0 0 0 1 0 0v-48a0 0 0 0 1 0 0z" fill="#394d5c"/><rect fill="#fcf05a" height="4" rx="2" width="8" x="43" y="43"/><path d="m42 6h2v2h-2z" fill="#f4f4e6"/><path d="m46 6h2v2h-2z" fill="#f4f4e6"/><path d="m50 6h2v2h-2z" fill="#f4f4e6"/><path d="m44 10h2v2h-2z" fill="#f4f4e6"/><path d="m48 10h2v2h-2z" fill="#f4f4e6"/><path d="m42 14h2v2h-2z" fill="#f4f4e6"/><path d="m46 14h2v2h-2z" fill="#f4f4e6"/><path d="m50 14h2v2h-2z" fill="#f4f4e6"/><path d="m44 18h2v2h-2z" fill="#f4f4e6"/><path d="m48 18h2v2h-2z" fill="#f4f4e6"/><path d="m42 22h2v2h-2z" fill="#f4f4e6"/><path d="m46 22h2v2h-2z" fill="#f4f4e6"/><path d="m50 22h2v2h-2z" fill="#f4f4e6"/><path d="m44 26h2v2h-2z" fill="#f4f4e6"/><path d="m48 26h2v2h-2z" fill="#f4f4e6"/><path d="m42 30h2v2h-2z" fill="#f4f4e6"/><path d="m46 30h2v2h-2z" fill="#f4f4e6"/><path d="m50 30h2v2h-2z" fill="#f4f4e6"/><path d="m42 38h2v2h-2z" fill="#f4f4e6"/><path d="m46 38h2v2h-2z" fill="#f4f4e6"/><path d="m50 38h2v2h-2z" fill="#f4f4e6"/><path d="m44 34h2v2h-2z" fill="#f4f4e6"/><path d="m48 34h2v2h-2z" fill="#f4f4e6"/></g></svg>