<svg height="512" viewBox="0 0 64 64" width="512" xmlns="http://www.w3.org/2000/svg"><g id="flat"><rect fill="#7d8d9c" height="36" rx="2" width="58" x="3" y="14"/><path d="m45 18v12h12a14.175 14.175 0 0 0 -12-12z" fill="#394d5c"/><path d="m45 22.1v7.9h7.9a10.144 10.144 0 0 0 -7.9-7.9z" fill="#cfdfe8"/><path d="m45 26.3v3.7h3.7a6.089 6.089 0 0 0 -3.7-3.7z" fill="#f4f4e6"/><path d="m41 18v12h-12a14.175 14.175 0 0 1 12-12z" fill="#394d5c"/><path d="m41 22.1v7.9h-7.9a10.144 10.144 0 0 1 7.9-7.9z" fill="#cfdfe8"/><path d="m41 26.3v3.7h-3.7a6.089 6.089 0 0 1 3.7-3.7z" fill="#f4f4e6"/><path d="m45 46v-12h12a14.175 14.175 0 0 1 -12 12z" fill="#394d5c"/><path d="m45 41.9v-7.9h7.9a10.144 10.144 0 0 1 -7.9 7.9z" fill="#cfdfe8"/><path d="m45 37.7v-3.7h3.7a6.089 6.089 0 0 1 -3.7 3.7z" fill="#f4f4e6"/><path d="m41 46v-12h-12a14.175 14.175 0 0 0 12 12z" fill="#394d5c"/><path d="m41 41.9v-7.9h-7.9a10.144 10.144 0 0 0 7.9 7.9z" fill="#cfdfe8"/><path d="m41 37.7v-3.7h-3.7a6.089 6.089 0 0 0 3.7 3.7z" fill="#f4f4e6"/><path d="m56 17h2v2h-2z" fill="#fcf05a"/><path d="m56 45h2v2h-2z" fill="#fcf05a"/><path d="m6 17h2v2h-2z" fill="#fcf05a"/><path d="m6 45h2v2h-2z" fill="#fcf05a"/><rect fill="#394d5c" height="8" rx="2" width="14" x="11" y="38"/><g fill="#f4f4e6"><path d="m14 41h2v2h-2z"/><path d="m20 41h2v2h-2z"/><path d="m11 29h2v2h-2z"/><path d="m7 29h2v2h-2z"/><path d="m13 33h2v2h-2z"/><path d="m9 33h2v2h-2z"/><path d="m15 29h2v2h-2z"/><path d="m17 33h2v2h-2z"/><path d="m19 29h2v2h-2z"/><path d="m23 29h2v2h-2z"/><path d="m21 33h2v2h-2z"/><path d="m13 25h2v2h-2z"/><path d="m9 25h2v2h-2z"/><path d="m17 25h2v2h-2z"/><path d="m21 25h2v2h-2z"/></g><path d="m11 18h18v4h-18z" fill="#cfdfe8"/></g></svg>