<svg height="512" viewBox="0 0 64 64" width="512" xmlns="http://www.w3.org/2000/svg"><g id="flat"><path d="m38 3h12v8h-12z" fill="#aabece" transform="matrix(-1 0 0 -1 88 14)"/><path d="m45 6h2v2h-2z" fill="#f4f4e6"/><path d="m41 6h2v2h-2z" fill="#f4f4e6"/><path d="m52 11v10l-3 4v4h-10v-4l-3-4v-10z" fill="#e97424"/><path d="m39 29h10v4h-10z" fill="#f9bb4b" transform="matrix(-1 0 0 -1 88 62)"/><path d="m31 12v40a5 5 0 0 0 5 5h1a5 5 0 0 0 5-5v-19h4v18.5a9.5 9.5 0 0 1 -9.5 9.5 9.5 9.5 0 0 1 -9.5-9.5v-39.5a5 5 0 0 0 -5-5 5 5 0 0 0 -5 5v28h-4v-28a9 9 0 0 1 9-9 9 9 0 0 1 9 9z" fill="#50b4f8"/><path d="m13 56h4v5h-4z" fill="#aabece" transform="matrix(-1 0 0 -1 30 117)"/><path d="m11 44h8v12h-8z" fill="#e97424" transform="matrix(-1 0 0 -1 30 100)"/><path d="m11 44h8l-2-4h-4z" fill="#f9bb4b"/><path d="m14 47h2v2h-2z" fill="#fcf05a"/><path d="m14 51h2v2h-2z" fill="#fcf05a"/><path d="m27 36h4v4h-4z" fill="#f9bb4b" transform="matrix(-1 0 0 -1 58 76)"/><path d="m27 32h4v4h-4z" fill="#e97424" transform="matrix(-1 0 0 -1 58 68)"/><path d="m13 36h4v4h-4z" fill="#2d75bb" transform="matrix(-1 0 0 -1 30 76)"/><path d="m42 33h4v4h-4z" fill="#2d75bb" transform="matrix(-1 0 0 -1 88 70)"/><path d="m46 26h-2v-2a1 1 0 0 1 .2-.6l2.8-3.733v-5.667h2v6a1 1 0 0 1 -.2.6l-2.8 3.733z" fill="#b5554e"/></g></svg>