<svg height="512" viewBox="0 0 64 64" width="512" xmlns="http://www.w3.org/2000/svg"><g id="flat"><path d="m55 19h-46a10.8 10.8 0 0 1 -4-8 10.8 10.8 0 0 1 4-8h46a10.8 10.8 0 0 1 4 8 10.8 10.8 0 0 1 -4 8z" fill="#50b4f8"/><path d="m21 11a10.959 10.959 0 0 0 3.466 8h15.068a10.966 10.966 0 0 0 0-16h-15.068a10.959 10.959 0 0 0 -3.466 8z" fill="#394d5c"/><circle cx="32" cy="11" fill="#f4f4e6" r="6"/><path d="m32 14a3 3 0 0 1 -3-3h2a1 1 0 0 0 1 1z" fill="#2d75bb"/><path d="m35 11h-2a1 1 0 0 0 -1-1v-2a3 3 0 0 1 3 3z" fill="#2d75bb"/><g fill="#cdeef6"><path d="m11 6h2v2h-2z"/><path d="m12 10h2v2h-2z"/><path d="m8 10h2v2h-2z"/><path d="m16 8h2v2h-2z"/><path d="m16 12h2v2h-2z"/><path d="m11 14h2v2h-2z"/><path d="m51 6h2v2h-2z"/><path d="m50 10h2v2h-2z"/><path d="m54 10h2v2h-2z"/><path d="m46 8h2v2h-2z"/><path d="m46 12h2v2h-2z"/><path d="m51 14h2v2h-2z"/></g><path d="m20 19h24v8h-24z" fill="#2d75bb"/><path d="m37 41h-10l-7-14h24z" fill="#394d5c"/><path d="m20 52h24v5h-24z" fill="#2d75bb"/><path d="m20 57h8a0 0 0 0 1 0 0v4a0 0 0 0 1 0 0h-6a2 2 0 0 1 -2-2v-2a0 0 0 0 1 0 0z" fill="#50b4f8"/><path d="m38 57h6a0 0 0 0 1 0 0v4a0 0 0 0 1 0 0h-8a0 0 0 0 1 0 0v-2a2 2 0 0 1 2-2z" fill="#50b4f8" transform="matrix(-1 0 0 -1 80 118)"/><path d="m25 41h2a0 0 0 0 1 0 0v4a0 0 0 0 1 0 0h-2a2 2 0 0 1 -2-2 2 2 0 0 1 2-2z" fill="#fcf05a"/><path d="m39 41h2a0 0 0 0 1 0 0v4a0 0 0 0 1 0 0h-2a2 2 0 0 1 -2-2 2 2 0 0 1 2-2z" fill="#fcf05a" transform="matrix(-1 0 0 -1 78 86)"/><path d="m27 41h10v4h-10z" fill="#50b4f8"/><path d="m44 52h-24v-3l7-4h10l7 4z" fill="#394d5c"/><path d="m31 22h2v2h-2z" fill="#fcf05a"/><path d="m35 22h2v2h-2z" fill="#8ec13f"/><path d="m27 22h2v2h-2z" fill="#e1462b"/></g></svg>