<?xml version="1.0" encoding="iso-8859-1"?>
<!-- Generator: Adobe Illustrator 21.0.0, SVG Export Plug-In . SVG Version: 6.00 Build 0)  -->
<svg xmlns="http://www.w3.org/2000/svg" xmlns:xlink="http://www.w3.org/1999/xlink" version="1.1" id="Capa_1" x="0px" y="0px" viewBox="0 0 512 512" style="enable-background:new 0 0 512 512;" xml:space="preserve" width="512" height="512">
<g>
	<g>
		<g>
			<path style="fill:#EDF5FF;" d="M512,355.173H0V157.288h512V355.173z"/>
		</g>
	</g>
	<g>
		<g>
			<path style="fill:#D7E9FF;" d="M512,355.173H256V157.288h256V355.173z"/>
		</g>
	</g>
	<g>
		<rect x="118.288" y="88.432" style="fill:#326ED3;" width="68.856" height="68.856"/>
		<rect x="187.144" y="88.432" style="fill:#6598EA;" width="68.856" height="68.856"/>
		<rect x="256" y="88.432" style="fill:#326ED3;" width="68.856" height="68.856"/>
		<rect x="187.144" y="19.577" style="fill:#326ED3;" width="68.856" height="68.856"/>
		<rect x="256" y="19.577" style="fill:#6598EA;" width="68.856" height="68.856"/>
		<rect x="324.856" y="88.432" style="fill:#6598EA;" width="68.856" height="68.856"/>
	</g>
	<g>
		
			<rect x="324.856" y="354.712" transform="matrix(-1 -1.224647e-16 1.224647e-16 -1 718.5679 778.2791)" style="fill:#326ED3;" width="68.856" height="68.856"/>
		
			<rect x="256" y="354.712" transform="matrix(-1 -1.224647e-16 1.224647e-16 -1 580.856 778.2791)" style="fill:#6598EA;" width="68.856" height="68.856"/>
		
			<rect x="187.144" y="354.712" transform="matrix(-1 -1.224647e-16 1.224647e-16 -1 443.144 778.2791)" style="fill:#326ED3;" width="68.856" height="68.856"/>
		
			<rect x="256" y="423.567" transform="matrix(-1 -1.224647e-16 1.224647e-16 -1 580.856 915.99)" style="fill:#326ED3;" width="68.856" height="68.856"/>
		
			<rect x="187.144" y="423.567" transform="matrix(-1 -1.224647e-16 1.224647e-16 -1 443.144 915.99)" style="fill:#6598EA;" width="68.856" height="68.856"/>
		
			<rect x="118.288" y="354.712" transform="matrix(-1 -1.224647e-16 1.224647e-16 -1 305.4321 778.2791)" style="fill:#6598EA;" width="68.856" height="68.856"/>
	</g>
	<g>
		<g>
			<g>
				<path style="fill:#FC5755;" d="M132.244,266.305c0,9.331-7.877,14.76-22.637,14.76H79.475v-53.534h28.603      c14.76,0,21.643,5.889,21.643,13.996c0,4.971-2.523,9.101-7.418,11.548C128.573,255.369,132.244,259.958,132.244,266.305z       M97.217,240.15v7.954h8.413c4.053,0,5.889-1.377,5.889-3.977s-1.836-3.977-5.889-3.977H97.217z M114.042,264.24      c0-2.753-1.988-4.206-5.965-4.206h-10.86v8.413h10.86C112.054,268.447,114.042,266.994,114.042,264.24z"/>
				<path style="fill:#FC5755;" d="M144.333,227.531h18.049v53.534h-18.049V227.531z"/>
				<path style="fill:#FC5755;" d="M188.462,241.527h-15.678v-13.996h49.404v13.996h-15.678v39.539h-18.049V241.527z"/>
				<path style="fill:#FC5755;" d="M280.394,281.065l-0.153-24.396l-11.624,19.578h-7.954l-11.625-18.737v23.555h-16.442v-53.534      h14.836l17.438,28.526l16.978-28.526h14.837l0.152,53.534H280.394z"/>
				<path style="fill:#FC0E3C;" d="M347.776,271.735h-20.343l-3.595,9.33h-18.354l23.402-53.534h17.742l23.402,53.534h-18.66      L347.776,271.735z M342.806,258.734l-5.201-13.46l-5.2,13.46H342.806z"/>
				<path style="fill:#FC0E3C;" d="M428.849,247.722c0,12.389-9.483,20.189-24.396,20.189h-7.724v13.154H378.68v-53.534h25.772      C419.365,227.531,428.849,235.332,428.849,247.722z M410.646,247.722c0-3.9-2.37-6.271-7.342-6.271h-6.576v12.542h6.576      C408.276,253.993,410.646,251.621,410.646,247.722z"/>
			</g>
		</g>
		<g>
			<polygon style="fill:#FC0E3C;" points="296.684,227.531 281.847,227.531 264.869,256.057 256,241.548 256,268.732      260.662,276.247 268.616,276.247 280.24,256.669 280.394,281.065 296.836,281.065    "/>
		</g>
	</g>
</g>















</svg>
